<?xml version="1.0"?>
<svg xmlns="http://www.w3.org/2000/svg" height="512px" viewBox="0 0 512 512" width="512px"><path d="m165 421c-8.277344 0-15 6.722656-15 15v76h212v-76c0-8.277344-6.722656-15-15-15h-15v15c0 8.289062-6.710938 15-15 15s-15-6.710938-15-15v-15zm0 0" fill="#f2545b"/><path d="m482 330h-15v61h45v-31c0-16.570312-13.429688-30-30-30zm0 0" fill="#f2545b"/><path d="m467 512h15c16.570312 0 30-13.433594 30-30v-61h-45zm0 0" fill="#f2545b"/><path d="m45 330h-15c-16.570312 0-30 13.429688-30 30v31h45zm0 0" fill="#f2545b"/><path d="m30 512h15v-91h-45v61c0 16.566406 13.429688 30 30 30zm0 0" fill="#f2545b"/><path d="m170.511719 60h-35.511719v210c0 16.566406 13.429688 30 30 30s30-13.433594 30-30v-180c0-33.136719 27.863281-60 61-60s61 26.863281 61 60v180c0 16.566406 13.429688 30 30 30s30-13.433594 30-30v-210h-35.511719c-12.398437-34.875-46.359375-60-85.488281-60s-73.089844 25.125-85.488281 60zm0 0" fill="#f2545b"/><path d="m45 90v30c0 16.566406 13.429688 30 30 30h30v-90h-30c-16.570312 0-30 13.429688-30 30zm0 0" fill="#f2545b"/><path d="m287 90v60h-62v-60c0-16.261719 14.199219-30 31-30s31 13.738281 31 30zm0 0" fill="#f2545b"/><path d="m467 90c0-16.570312-13.429688-30-30-30h-30v90h30c16.570312 0 30-13.433594 30-30zm0 0" fill="#f2545b"/><path d="m105 180h-30v30c0 16.566406 13.429688 30 30 30zm0 0" fill="#f2545b"/><path d="m225 180h62v60h-62zm0 0" fill="#f2545b"/><path d="m437 180h-30v60c16.570312 0 30-13.433594 30-30zm0 0" fill="#f2545b"/><path d="m105 270c-10.976562 0-21.140625-3.175781-30-8.34375v250.34375h45v-76c0-24.8125 20.1875-45 45-45h182c24.8125 0 45 20.1875 45 45v76h45v-250.34375c-8.859375 5.167969-19.023438 8.34375-30 8.34375 0 33.089844-26.910156 60-60 60s-60-26.910156-60-60h-62c0 33.089844-26.910156 60-60 60s-60-26.910156-60-60zm0 0" fill="#f2545b"/></svg>
